<svg xmlns="http://www.w3.org/2000/svg" viewBox="0 0 900 900" width="900" height="900" role="img">
  <defs>
    <linearGradient id="bg" x1="0" y1="0" x2="1" y2="1">
      <stop offset="0" stop-color="#154331"/>
      <stop offset="1" stop-color="#0b2c1d"/>
    </linearGradient>
    <pattern id="dots" x="27" y="27" width="60" height="60" patternUnits="userSpaceOnUse">
      <circle cx="30" cy="30" r="3.2" fill="#f5edc9" opacity="0.14"/>
    </pattern>
    <radialGradient id="vignette" cx="0.5" cy="0.46" r="0.72">
      <stop offset="0.55" stop-color="#000" stop-opacity="0"/>
      <stop offset="1" stop-color="#000" stop-opacity="0.28"/>
    </radialGradient>
  </defs>

  <rect width="900" height="900" fill="url(#bg)"/>
  <rect width="900" height="900" fill="url(#dots)"/>

  <!-- لوزیِ کم‌رنگ، اشاره به نشانِ برند -->
  <rect x="215" y="215" width="470" height="470" rx="70"
        transform="rotate(45 450 450)"
        fill="none" stroke="#cfb16b" stroke-width="3" opacity="0.16"/>

  <rect width="900" height="900" fill="url(#vignette)"/>

  <g transform="translate(450 450) scale(1.7265) translate(-200 -236.5)"
     fill="none" stroke="#f5edc9" stroke-width="9.85"
     stroke-linecap="round" stroke-linejoin="round">
    <path d="M116 196l18 90c5 24 22 38 48 38h28c26 0 43-14 48-38l18-90z"/>
    <path d="M108 196h164"/>
    <path d="M270 222c36-4 42 48 4 56"/>
    <path d="M100 344c52 20 116 20 168 0"/>
    <path d="M138 196c8-56 100-56 108 0"/>
    <path d="M192 140V114"/>
  </g>
</svg>
